<svg xmlns="http://www.w3.org/2000/svg" viewBox="0 0 512 512" fill="#fff">
   <path d="M433.41 192.261l3.657-36.571h-47.983c6.596-7.752 10.589-17.783 10.589-28.735 0-24.487-19.921-44.408-44.408-44.408s-44.408 19.921-44.408 44.408c0 10.952 3.994 20.983 10.589 28.735h-47.983l3.657 36.571h-47.466l3.657-36.571h-47.983c6.596-7.752 10.589-17.783 10.589-28.735 0-24.487-19.921-44.408-44.408-44.408s-44.408 19.921-44.408 44.408c0 10.952 3.994 20.983 10.589 28.735H69.708l3.657 36.571H0v47.02h78.067l3.657 36.571h20.898l10.449 104.49h24.144v-15.673h-9.961l-8.882-88.816h66.273l-5.125 51.246 15.596 1.559 5.282-52.805h20.897l3.657-36.571h56.87l3.657 36.571h20.898l10.449 104.49h76.877l10.449-104.49h20.898l3.657-36.571H512v-47.02h-78.59zM15.673 223.608v-15.673h59.259l1.567 15.673H15.673zM151.51 98.22c15.844 0 28.735 12.891 28.735 28.735s-12.891 28.735-28.735 28.735-28.735-12.891-28.735-28.735S135.666 98.22 151.51 98.22zm55.602 161.96H95.908l-8.882-88.816h128.968l-8.882 88.816zm19.408-36.572l1.567-15.673h50.6l1.567 15.673H226.52zM355.265 98.22c15.844 0 28.735 12.891 28.735 28.735s-12.891 28.735-28.735 28.735-28.735-12.891-28.735-28.735c.001-15.844 12.892-28.735 28.735-28.735zm24.256 266.449h-48.51l-8.882-88.816h66.274l-8.882 88.816zm31.346-104.489H299.663l-8.882-88.816h128.968l-8.882 88.816zm85.46-36.572h-66.051l1.567-15.673h64.484v15.673z"/><path d="M193.306 340.637c-24.487 0-44.408 19.921-44.408 44.408s19.921 44.408 44.408 44.408 44.408-19.921 44.408-44.408-19.921-44.408-44.408-44.408zm0 73.143c-15.844 0-28.735-12.891-28.735-28.735s12.891-28.735 28.735-28.735 28.735 12.891 28.735 28.735-12.891 28.735-28.735 28.735z"/>
</svg>